<?xml version="1.0" encoding="utf-8"?>
<!-- Generator: Adobe Illustrator 20.1.0, SVG Export Plug-In . SVG Version: 6.00 Build 0)  -->
<svg version="1.1" id="Ebene_1" xmlns="http://www.w3.org/2000/svg" xmlns:xlink="http://www.w3.org/1999/xlink" x="0px" y="0px"
	 viewBox="0 0 191 172" style="enable-background:new 0 0 191 172;" xml:space="preserve">
<style type="text/css">
	.st0{fill:#0F4593;}
	.st1{fill:#0F4593;stroke:#0F4593;stroke-width:0.216;stroke-miterlimit:2.6131;}
</style>
<g>
	<path class="st0" d="M184.4,87.4v-7.2c-0.1-0.4-0.3-3.4-0.3-4.1c-0.4-3.9-1.1-8-2.1-11.7c-1.3-4.9-2.8-9.1-4.9-13.4
		c-2.8-5.9-5.1-9.4-8.7-14.2c-4.3-5.7-10.6-11.6-16.5-15.8c-3.6-2.6-7.2-4.6-11.6-6.8c-6.1-3-14.1-5.4-21-6.4
		c-1.4-0.2-2.7-0.4-4.2-0.5c-0.8-0.1-3.7-0.2-4.2-0.3h-7.2c-0.4,0.2-5.9,0.6-7,0.8c-12.2,1.8-23.2,6.5-32.9,13.6
		c-1.9,1.4-2.8,2.2-4.4,3.5l-7.8,7.7c-4.4,4.6-9.7,13.2-12.3,18.7c-0.4,0.9-0.7,2.3,0.8,2.2c1.1-0.1,1.3-1.3,1.8-2.2
		c0.9-1.8,1.8-3.5,2.8-5c2.1-3.4,4.2-6.2,6.5-9c1.8-2.2,5.5-5.9,7.8-7.8c3.8-3.1,4.7-3.8,8.9-6.6c3-2,6.7-3.7,10.3-5.4
		c15.8-7,35.4-7.9,52.5-2.2c8.6,2.9,16.4,7.4,22.4,12.4l2.1,1.8c1.3,1,3,3,4,3.8c1.4,1.3,2.5,2.7,3.7,4.1
		c5.9,6.7,11.1,16.7,13.7,25.2c6.8,22.1,2.4,49.3-12.2,67.3c-0.4,0.5-1.7,1.6-0.8,2.5c1,1,2-0.5,2.4-1c7.4-8.9,13-19,16.1-30.5
		c0.6-2.1,1-4.3,1.4-6.5C183.8,93.3,184.3,87.7,184.4,87.4z"/>
	<path class="st0" d="M110.9,141.8c4,0,10,0.8,10-4.3c0-1.4-0.2-2.7-1.2-3.7c-0.8-0.8-2-1.2-3.5-1.2h-5.3V141.8L110.9,141.8z
		 M114.2,139.4V135c1.8-0.2,3.4,0.2,3.5,1.8c0.2,1.7-0.6,2.7-2.6,2.7h-0.5L114.2,139.4z"/>
	<path class="st0" d="M99.5,141.8h3.1v-4.9c0.5,0.7,3.1,4.9,3.3,4.9h3v-9.3h-3.1v4.8c-1-1.5-2.1-3.2-3-4.8h-3.4L99.5,141.8
		L99.5,141.8z"/>
	<path class="st0" d="M126.8,141.8h3.3l0.4-1.3h3.3c0.5,1.7,0,1.3,3.8,1.3c-0.2-0.7-3.6-9.2-3.9-9.3h-2.9c-0.4,0.1-2.6,5.8-3,6.9
		C127.4,140.2,127,141.1,126.8,141.8L126.8,141.8z M131.2,138.7l1.1-2.9l0.9,2.8L131.2,138.7z"/>
	<rect x="122.7" y="132.6" class="st0" width="3.2" height="9.3"/>
	<rect x="94.5" y="132.6" class="st0" width="3.2" height="9.3"/>
	<path class="st0" d="M128.7,155c-5.1,1.4-3.3,9.7,2,8.3C135.4,162,133.9,153.6,128.7,155L128.7,155z M129.1,156.1
		c3.5-0.8,4,5.5,1,6.1c-1.8,0.4-2.8-1-3-2.6C127,157.8,127.6,156.5,129.1,156.1z"/>
	<path class="st0" d="M82.8,155c-5.1,1.4-3.3,9.7,2,8.3C89.5,162,88,153.6,82.8,155L82.8,155z M83.2,156.1c3.5-0.8,4,5.5,1,6.1
		c-1.8,0.4-2.8-1-3-2.6C81.1,157.8,81.7,156.5,83.2,156.1z"/>
	<path class="st0" d="M97.4,163.3h3.5c4.8,0,4.8-8.1,0-8.1h-3.5V163.3L97.4,163.3z M98.8,162.2v-5.8c2.6,0,4.1,0,4.1,2.9
		C102.9,162.2,101.4,162.2,98.8,162.2z"/>
	<path class="st0" d="M89,163.3h1.5V160c4.8,0,3.2,0.3,3.9,3.3H96c-1-1.1,0.4-2.8-1.5-3.8c0.8-0.5,1.5-1.3,1.2-2.7
		c-0.5-2.1-4-1.6-6.6-1.6L89,163.3L89,163.3z M90.5,158.9v-2.5h2.2c0.9,0,1.5,0.2,1.5,1.2c0,0.9-0.5,1.4-1.4,1.4L90.5,158.9z"/>
	<path class="st0" d="M117.8,163.3h1.5V160c4.8,0,3.2,0.3,3.9,3.3h1.6c-1-1.1,0.4-2.8-1.5-3.8c2.1-1.3,1.6-4.3-1.3-4.3h-4.1
		L117.8,163.3L117.8,163.3z M119.3,158.9v-2.5h2.2c0.9,0,1.5,0.2,1.5,1.2c0,0.9-0.5,1.4-1.4,1.4L119.3,158.9L119.3,158.9z"/>
	<path class="st0" d="M143.4,163.3h1.5v-3.1h2.3c3.6,0,3.5-5.1,0-5.1h-3.8V163.3L143.4,163.3z M144.8,159.1v-2.8h2.2
		c1.7,0,2,2.8-0.3,2.8H144.8z"/>
	<path class="st0" d="M71.7,163.3h1.4v-5.9l3.3,5.3c0.4,0.7,0.1,0.6,1.9,0.6v-8.1H77v5.9l-3.3-5.3c-0.4-0.7-0.1-0.6-1.9-0.6
		L71.7,163.3L71.7,163.3z"/>
	<path class="st0" d="M115.1,162.5l0.2,0.9h0.9V159h-3.5v1.1h2.2c-0.3,3.4-4.5,2.9-4.7-0.5c-0.3-4.2,4.1-4.4,4.5-1.9h1.4
		c-0.5-3.7-6.3-3.9-7.3,0.3c-0.5,1.9,0.3,4,1.4,4.7C112.7,164.3,114,163.1,115.1,162.5z"/>
	<path class="st0" d="M138.2,163.5c4.5,0,3.5-4,3.5-8.2h-1.5v4.5c0,1.4-0.3,2.4-1.7,2.5c-1.6,0.1-2.1-0.7-2.1-2.2v-4.8h-1.5
		C134.9,159.2,133.8,163.5,138.2,163.5z"/>
	<path class="st0" d="M56.3,163.5c4.5,0,3.5-4.1,3.5-8.3h-1.5v4.8c0,1.4-0.3,2.2-1.8,2.2c-1.7,0-2-0.9-2-2.5c0-1.5,0-3,0-4.4
		l-1.5-0.1C53,159.1,51.9,163.5,56.3,163.5z"/>
	<path class="st0" d="M63.1,163.3c2,0,1.5,0.3,2.3-1.9c0.2-0.7,0.5-1.4,0.7-2.1c0.5-1.3,0.9-2.9,1.4-4.1c-1.8-0.1-1.3-0.5-2.4,3
		c-0.3,1-0.6,2.5-1.1,3.2l-2-6.2h-1.5L63.1,163.3z"/>
	<polygon class="st0" points="45.3,156.4 47.9,156.4 47.9,163.3 49.4,163.3 49.4,156.4 51.9,156.4 51.9,155.2 45.3,155.2 	"/>
	<path class="st0" d="M49.7,115.8h10.7l4.6,26.1h12.4c0.5-0.6,15.9-31,17.9-35c0.3-0.6,1-1.7,1.1-2.3H82.5c-2.2,5.5-5.1,12-7.5,17.6
		l-1.1,2.5l-2-20.2H52.2L49.7,115.8z"/>
	<path class="st1" d="M5.4,115.4v0.4h8.8l-6.2,26h13.1l6.5-26.1H45l2.8-11.2H8.1C8,105.8,5.8,114.9,5.4,115.4z"/>
	<path class="st0" d="M40.8,141.9c6.2,0,12.9-1.9,15.3-7.5c0.6-1.4,3.8-15.2,4.1-17.3H49c-0.2,1.2-1.5,6.1-1.9,7.7
		c-0.3,1.3-0.7,2.6-1,3.9c-0.4,1.4-0.7,2.5-2.4,2.6c-0.8,0-1.5-0.2-1.9-0.6c-0.6-0.6-0.2-1.2-0.1-1.9c0.3-1.3,0.7-2.5,1-3.8
		s0.7-2.6,1-3.8c0.3-1.3,0.7-2.6,1-3.8c-1.7-0.1-9,0-11.2,0c-0.5,2.5-1.3,5.2-2,7.8c-0.3,1.3-0.7,2.6-1,3.9s-0.8,2.7-1,4
		c-0.5,2.8,1.8,5.6,3.2,6.6C34.8,140.9,37.4,141.9,40.8,141.9z"/>
	<rect x="55.2" y="153.8" class="st0" width="0.8" height="0.8"/>
	<rect x="56.6" y="153.8" class="st0" width="0.8" height="0.8"/>
</g>
</svg>
