<svg id="Layer_1" data-name="Layer 1" xmlns="http://www.w3.org/2000/svg" viewBox="0 0 35.1 44"><defs><style>.cls-1{fill:#010101;}</style></defs><title>icon-document</title><g id="Document"><path class="cls-1" d="M35.1,16h0L35,15.9a0.38,0.38,0,0,0-.2-0.2L25.4,6.3l-0.2-.1L0.8,6a0.79,0.79,0,0,0-.8.8V49.2a0.86,0.86,0,0,0,.8.8H34.3a0.79,0.79,0,0,0,.8-0.8V16ZM25.7,8.8l6.6,6.6H25.7V8.8Zm7.8,39.5H1.7V7.6H24v8.6a0.79,0.79,0,0,0,.8.8h8.6V48.3h0.1Z" transform="translate(0 -6)"/><path class="cls-1" d="M21.5,29.3a12.25,12.25,0,0,0-1.9.2,21.08,21.08,0,0,1-2.8-4.1c0.8-3.5.2-4.2,0-4.5a1.61,1.61,0,0,0-1.1-.5,0.48,0.48,0,0,0-.4.1H15.2a1.5,1.5,0,0,0-1,.9c-0.4.9-.1,2.3,0.7,4.2a41,41,0,0,1-2.2,6.1C10.3,32.8,9.1,33.9,9,35a1.68,1.68,0,0,0,.8,1.7,1.14,1.14,0,0,0,.8.3,2.77,2.77,0,0,0,2-1.4A17.17,17.17,0,0,0,14,33.1a40.09,40.09,0,0,1,4.9-1.6,3.81,3.81,0,0,0,2.7,1.3,1.7,1.7,0,0,0,1.6-.9,1.83,1.83,0,0,0,.3-1.7A2,2,0,0,0,21.5,29.3ZM10.8,35.5a0.48,0.48,0,0,1-.2-0.4c0-.3.5-0.8,1.7-1.5A8.29,8.29,0,0,1,10.8,35.5Zm4.8-13.6a0.1,0.1,0,0,1,.1-0.1h0a4.4,4.4,0,0,1,0,1.7A2.27,2.27,0,0,1,15.6,21.9Zm-1.1,9.4A28.72,28.72,0,0,0,16,26.9a26.35,26.35,0,0,0,2.2,3.2C16.8,30.5,15.6,30.9,14.5,31.3Zm7.7-.4a0.2,0.2,0,0,1-.1.2,0.47,0.47,0,0,1-.5.3,2.11,2.11,0,0,1-1.1-.5h0.1c0.3,0,.6-0.1.9-0.1,0.5-.1.7,0,0.7,0.1C22.3,30.8,22.2,30.8,22.2,30.9Z" transform="translate(0 -6)"/></g></svg>